<svg width="30" height="30" viewBox="0 0 30 30" fill="none" xmlns="http://www.w3.org/2000/svg">
<g filter="url(#filter0_b_2002_4342)">
<g clip-path="url(#clip0_2002_4342)">
<rect width="30" height="30" rx="5" fill="black" fill-opacity="0.1"/>
<g filter="url(#filter1_d_2002_4342)">
<path d="M20.8421 7.69727H9.15792C8.84804 7.69727 8.55085 7.82037 8.33172 8.03949C8.1126 8.25861 7.9895 8.5558 7.9895 8.86569V12.9552C7.9895 16.8051 9.85313 19.1383 11.4166 20.4177C13.1006 21.795 14.7758 22.2631 14.8489 22.2821C14.9493 22.3094 15.0552 22.3094 15.1556 22.2821C15.2286 22.2631 16.9016 21.795 18.5878 20.4177C20.1469 19.1383 22.0105 16.8051 22.0105 12.9552V8.86569C22.0105 8.5558 21.8874 8.25861 21.6683 8.03949C21.4492 7.82037 21.152 7.69727 20.8421 7.69727ZM15 21.1063C13.9669 20.7456 13.0049 20.2065 12.1578 19.5136C10.46 18.1247 9.47705 16.3144 9.22365 14.1236H15V8.86569H20.8421V12.9552C20.8423 13.3456 20.8204 13.7357 20.7764 14.1236H15V21.1063Z" fill="#96EA63"/>
</g>
<g opacity="0.4" filter="url(#filter2_f_2002_4342)">
<ellipse cx="15.0105" cy="30.7024" rx="19.032" ry="8.80591" fill="#96EA63"/>
</g>
</g>
</g>
<defs>
<filter id="filter0_b_2002_4342" x="-2" y="-2" width="34" height="34" filterUnits="userSpaceOnUse" color-interpolation-filters="sRGB">
<feFlood flood-opacity="0" result="BackgroundImageFix"/>
<feGaussianBlur in="BackgroundImageFix" stdDeviation="1"/>
<feComposite in2="SourceAlpha" operator="in" result="effect1_backgroundBlur_2002_4342"/>
<feBlend mode="normal" in="SourceGraphic" in2="effect1_backgroundBlur_2002_4342" result="shape"/>
</filter>
<filter id="filter1_d_2002_4342" x="6.0855" y="1.98526" width="21.637" height="22.2212" filterUnits="userSpaceOnUse" color-interpolation-filters="sRGB">
<feFlood flood-opacity="0" result="BackgroundImageFix"/>
<feColorMatrix in="SourceAlpha" type="matrix" values="0 0 0 0 0 0 0 0 0 0 0 0 0 0 0 0 0 0 127 0" result="hardAlpha"/>
<feOffset dx="1.904" dy="-1.904"/>
<feGaussianBlur stdDeviation="1.904"/>
<feColorMatrix type="matrix" values="0 0 0 0 0.654902 0 0 0 0 0.941176 0 0 0 0 0.458824 0 0 0 0.2 0"/>
<feBlend mode="normal" in2="BackgroundImageFix" result="effect1_dropShadow_2002_4342"/>
<feBlend mode="normal" in="SourceGraphic" in2="effect1_dropShadow_2002_4342" result="shape"/>
</filter>
<filter id="filter2_f_2002_4342" x="-23.4863" y="2.43171" width="76.9935" height="56.5414" filterUnits="userSpaceOnUse" color-interpolation-filters="sRGB">
<feFlood flood-opacity="0" result="BackgroundImageFix"/>
<feBlend mode="normal" in="SourceGraphic" in2="BackgroundImageFix" result="shape"/>
<feGaussianBlur stdDeviation="9.73239" result="effect1_foregroundBlur_2002_4342"/>
</filter>
<clipPath id="clip0_2002_4342">
<rect width="30" height="30" rx="5" fill="white"/>
</clipPath>
</defs>
</svg>
