<svg width="161" height="36" viewBox="0 0 161 36" fill="none" xmlns="http://www.w3.org/2000/svg">
<rect x="0.5" y="0.62793" width="44.5418" height="35.3137" rx="5" fill="#96EA63"/>
<path d="M31.2777 8.62793C31.2777 9.71339 31.1279 10.724 30.8659 11.6972C30.5665 12.6703 30.1922 13.5686 29.7056 14.3921C29.219 15.2155 28.6202 15.9641 27.909 16.6004C27.1978 17.2742 26.4493 17.7982 25.6258 18.2848C26.4493 18.7339 27.2353 19.2954 27.909 19.9317C28.6202 20.568 29.219 21.3166 29.7056 22.14C30.1922 22.9635 30.6039 23.8618 30.8659 24.7975C31.1654 25.7707 31.2777 26.7813 31.2777 27.8667H28.0213C28.0213 26.8936 27.8341 25.9578 27.4599 24.9847C27.0856 24.0115 26.5615 23.1506 25.8504 22.402C25.1766 21.616 24.3158 21.0171 23.3426 20.5305C22.3694 20.0439 21.2465 19.8194 20.0488 19.8194V16.7501C21.2091 16.7501 22.2571 16.5256 23.2303 16.0764C24.2035 15.6273 25.0644 15.0284 25.7755 14.2798C26.4867 13.5312 27.0481 12.6703 27.4224 11.6972C27.8341 10.724 28.0213 9.71339 28.0213 8.62793H31.2777ZM37.0418 8.62793C37.0418 9.52624 36.9295 10.462 36.7424 11.3977C36.5552 12.3335 36.2932 13.1943 35.9564 14.0552C35.6195 14.9161 35.2078 15.6647 34.7586 16.4133C34.3095 17.1244 33.7854 17.7607 33.224 18.2848C33.8229 18.7713 34.3469 19.4076 34.8335 20.1188C35.3201 20.83 35.6944 21.616 36.0312 22.4769C36.3681 23.3377 36.5927 24.1986 36.7798 25.1344C36.967 26.0701 37.0418 27.0059 37.0418 27.9416H33.7854C33.6732 25.5835 33.224 23.5998 32.4006 22.0652C31.5771 20.5305 30.4168 19.2954 28.9196 18.3596C30.4168 17.349 31.5771 16.1139 32.4006 14.5792C33.224 13.0446 33.6732 11.0983 33.7854 8.74021H37.0418V8.62793Z" fill="black"/>
<path d="M14.2642 8.62793C14.2642 9.71339 14.4139 10.724 14.6759 11.6972C14.9753 12.6703 15.3496 13.5686 15.8362 14.3921C16.3228 15.2155 16.9216 15.9641 17.6328 16.6004C18.344 17.2742 19.0926 17.7982 19.916 18.2848C19.0926 18.7339 18.3065 19.2954 17.6328 19.9317C16.9217 20.568 16.3228 21.3166 15.8362 22.14C15.3496 22.9635 14.9379 23.8618 14.6759 24.7975C14.3764 25.7707 14.2642 26.7813 14.2642 27.8667H17.5205C17.5205 26.8936 17.7077 25.9578 18.082 24.9847C18.4563 24.0115 18.9803 23.1506 19.6914 22.402C20.3652 21.616 21.226 21.0171 22.1992 20.5305C23.1724 20.0439 24.2953 19.8194 25.493 19.8194V16.7501C24.3327 16.7501 23.2847 16.5256 22.3115 16.0764C21.3383 15.6273 20.4775 15.0284 19.7663 14.2798C19.0551 13.5312 18.4937 12.6703 18.1194 11.6972C17.7077 10.724 17.5205 9.71339 17.5205 8.62793L14.2642 8.62793ZM8.5 8.62793C8.5 9.52624 8.61229 10.462 8.79944 11.3977C8.98658 12.3335 9.24859 13.1943 9.58546 14.0552C9.92232 14.9161 10.334 15.6647 10.7832 16.4133C11.2324 17.1244 11.7564 17.7607 12.3178 18.2848C11.7189 18.7713 11.1949 19.4076 10.7083 20.1188C10.2218 20.83 9.84747 21.616 9.5106 22.4769C9.17373 23.3377 8.94916 24.1986 8.76201 25.1344C8.57486 26.0701 8.5 27.0059 8.5 27.9416H11.7564C11.8687 25.5835 12.3178 23.5998 13.1413 22.0652C13.9647 20.5305 15.125 19.2954 16.6222 18.3596C15.125 17.349 13.9647 16.1139 13.1413 14.5792C12.3178 13.0446 11.8687 11.0983 11.7564 8.74021L8.5 8.74022L8.5 8.62793Z" fill="black"/>
<path d="M60.3445 23.5312H61.0804L61.6027 22.2018L67.1577 9.97616H71.4307L63.6443 26.5936H57.7807L50.0417 9.97616H54.3148L59.8223 22.2018L60.3445 23.5312Z" fill="white"/>
<path d="M73.297 26.5936V9.97616H90.6503V13.086H76.8104V16.7656H89.8907V19.8754H76.8104V23.4837H90.7453V26.5936H73.297Z" fill="white"/>
<path d="M99.8839 26.5698V13.3471H92.2162V9.95242H111.231V13.3471H103.563V26.5698H99.8839Z" fill="white"/>
<path d="M116.99 13.2284V17.6202H125.679C127.601 17.6202 128.432 17.0979 128.432 15.3175C128.432 13.7032 127.791 13.2284 125.679 13.2284H116.99ZM132.705 26.736H128.171L125.868 21.9644C125.417 20.9911 124.705 20.635 123.328 20.635H116.99V26.5936H113.31V9.97616H126.177C130.521 9.97616 132.468 11.4005 132.468 14.5341C132.468 17.359 130.901 18.9496 127.886 19.1632V19.4481C129.026 19.7329 129.738 20.3976 130.426 21.8695L132.705 26.736Z" fill="white"/>
<path d="M134.685 26.5936V9.97616H138.364V26.5936H134.685Z" fill="white"/>
<path d="M156.982 19.8991H160.876C160.923 24.2671 157.362 26.8309 151.095 26.8309C144.163 26.8309 140.507 23.6974 140.507 18.3323C140.507 12.8011 144.353 9.73877 151.119 9.73877C157.362 9.73877 160.947 12.3501 160.947 16.7656H156.935C156.793 14.1068 155.321 13.1809 151.143 13.1809C146.134 13.1809 144.543 14.3679 144.543 18.3323C144.543 21.727 145.801 23.3888 151.048 23.3888C155.226 23.3888 156.982 22.273 156.982 19.8991Z" fill="white"/>
</svg>
