<svg width="161" height="37" viewBox="0 0 161 37" fill="none" xmlns="http://www.w3.org/2000/svg">
<rect x="0.5" y="0.867432" width="44.5418" height="35.3137" rx="5" fill="#96EA63"/>
<path d="M31.2777 8.86743C31.2777 9.95289 31.1279 10.9635 30.8659 11.9367C30.5665 12.9098 30.1922 13.8081 29.7056 14.6316C29.219 15.455 28.6202 16.2036 27.909 16.8399C27.1978 17.5137 26.4493 18.0377 25.6258 18.5243C26.4493 18.9734 27.2353 19.5349 27.909 20.1712C28.6202 20.8075 29.219 21.5561 29.7056 22.3795C30.1922 23.203 30.6039 24.1013 30.8659 25.037C31.1654 26.0102 31.2777 27.0208 31.2777 28.1062H28.0213C28.0213 27.1331 27.8341 26.1973 27.4599 25.2242C27.0856 24.251 26.5615 23.3901 25.8504 22.6415C25.1766 21.8555 24.3158 21.2566 23.3426 20.77C22.3694 20.2834 21.2465 20.0589 20.0488 20.0589V16.9897C21.2091 16.9897 22.2571 16.7651 23.2303 16.3159C24.2035 15.8668 25.0644 15.2679 25.7755 14.5193C26.4867 13.7707 27.0481 12.9098 27.4224 11.9367C27.8341 10.9635 28.0213 9.95289 28.0213 8.86743H31.2777ZM37.0418 8.86743C37.0418 9.76574 36.9295 10.7015 36.7424 11.6372C36.5552 12.573 36.2932 13.4338 35.9564 14.2947C35.6195 15.1556 35.2078 15.9042 34.7586 16.6528C34.3095 17.3639 33.7854 18.0002 33.224 18.5243C33.8229 19.0108 34.3469 19.6471 34.8335 20.3583C35.3201 21.0695 35.6944 21.8555 36.0312 22.7164C36.3681 23.5772 36.5927 24.4381 36.7798 25.3739C36.967 26.3096 37.0418 27.2454 37.0418 28.1811H33.7854C33.6732 25.823 33.224 23.8393 32.4006 22.3047C31.5771 20.77 30.4168 19.5349 28.9196 18.5991C30.4168 17.5885 31.5771 16.3534 32.4006 14.8187C33.224 13.2841 33.6732 11.3378 33.7854 8.97972H37.0418V8.86743Z" fill="black"/>
<path d="M14.2642 8.86743C14.2642 9.95289 14.4139 10.9635 14.6759 11.9367C14.9753 12.9098 15.3496 13.8081 15.8362 14.6316C16.3228 15.455 16.9216 16.2036 17.6328 16.8399C18.344 17.5137 19.0926 18.0377 19.916 18.5243C19.0926 18.9734 18.3065 19.5349 17.6328 20.1712C16.9217 20.8075 16.3228 21.5561 15.8362 22.3795C15.3496 23.203 14.9379 24.1013 14.6759 25.037C14.3764 26.0102 14.2642 27.0208 14.2642 28.1062H17.5205C17.5205 27.1331 17.7077 26.1973 18.082 25.2242C18.4563 24.251 18.9803 23.3901 19.6914 22.6415C20.3652 21.8555 21.226 21.2566 22.1992 20.77C23.1724 20.2834 24.2953 20.0589 25.493 20.0589V16.9897C24.3327 16.9897 23.2847 16.7651 22.3115 16.3159C21.3383 15.8668 20.4775 15.2679 19.7663 14.5193C19.0551 13.7707 18.4937 12.9098 18.1194 11.9367C17.7077 10.9635 17.5205 9.95289 17.5205 8.86743L14.2642 8.86743ZM8.5 8.86743C8.5 9.76574 8.61229 10.7015 8.79944 11.6372C8.98658 12.573 9.24859 13.4338 9.58546 14.2947C9.92232 15.1556 10.334 15.9042 10.7832 16.6528C11.2324 17.3639 11.7564 18.0002 12.3178 18.5243C11.7189 19.0108 11.1949 19.6472 10.7083 20.3583C10.2218 21.0695 9.84747 21.8555 9.5106 22.7164C9.17373 23.5772 8.94916 24.4381 8.76201 25.3739C8.57486 26.3096 8.5 27.2454 8.5 28.1811H11.7564C11.8687 25.823 12.3178 23.8393 13.1413 22.3047C13.9647 20.77 15.125 19.5349 16.6222 18.5991C15.125 17.5885 13.9647 16.3534 13.1413 14.8187C12.3178 13.2841 11.8687 11.3378 11.7564 8.97972L8.5 8.97972L8.5 8.86743Z" fill="black"/>
<path d="M60.3446 23.7707H61.0805L61.6028 22.4413L67.1577 10.2157H71.4308L63.6443 26.8331H57.7808L50.0418 10.2157H54.3149L59.8223 22.4413L60.3446 23.7707Z" fill="#07070A"/>
<path d="M73.2971 26.8331V10.2157H90.6504V13.3255H76.8105V17.0051H89.8907V20.1149H76.8105V23.7232H90.7453V26.8331H73.2971Z" fill="#07070A"/>
<path d="M99.884 26.8093V13.5866H92.2162V10.1919H111.231V13.5866H103.564V26.8093H99.884Z" fill="#07070A"/>
<path d="M116.99 13.4679V17.8597H125.679C127.601 17.8597 128.432 17.3374 128.432 15.557C128.432 13.9427 127.791 13.4679 125.679 13.4679H116.99ZM132.705 26.9755H128.171L125.868 22.2039C125.417 21.2306 124.705 20.8745 123.328 20.8745H116.99V26.8331H113.31V10.2157H126.177C130.521 10.2157 132.468 11.64 132.468 14.7736C132.468 17.5985 130.901 19.1891 127.886 19.4027V19.6876C129.026 19.9724 129.738 20.6371 130.426 22.109L132.705 26.9755Z" fill="#07070A"/>
<path d="M134.685 26.8331V10.2157H138.365V26.8331H134.685Z" fill="#07070A"/>
<path d="M156.983 20.1386H160.876C160.923 24.5066 157.362 27.0704 151.095 27.0704C144.163 27.0704 140.508 23.9369 140.508 18.5718C140.508 13.0406 144.353 9.97827 151.119 9.97827C157.362 9.97827 160.947 12.5896 160.947 17.0051H156.935C156.793 14.3463 155.321 13.4204 151.143 13.4204C146.134 13.4204 144.543 14.6074 144.543 18.5718C144.543 21.9665 145.801 23.6283 151.048 23.6283C155.226 23.6283 156.983 22.5125 156.983 20.1386Z" fill="#07070A"/>
</svg>
